<svg xmlns="http://www.w3.org/2000/svg" version="1.1" xmlns:xlink="http://www.w3.org/1999/xlink" xmlns:svgjs="http://svgjs.dev/svgjs" width="100%" height="100%" viewBox="0 0 1000 600"><rect width="1000" height="600" x="0" y="0" fill="#ffffff"/><g><circle r="166.66666666666666" cx="309.3822580973307" cy="331.60449310728285" fill="#ebf08d" transform="matrix(0.8758678936325159,0,0,0.8758678936325159,0,9.558284454486412)"/><path d="M309.7040764513057 406.60449834857525L309.7040764513057 406.60449834857525Q303.3845914287356 406.60449834857525 294.9586113986421 405.8730764709629Q286.53263136854866 405.11239771824626 278.1944219637686 403.9713795891711Q269.8854694340931 402.80110458499144 263.565984411523 401.95265520696114L263.565984411523 401.95265520696114L265.233626292479 388.05563953232786Q271.34831318931765 388.69929078462667 279.45246759326176 389.54774016265685Q287.58587887231033 390.36693266558257 295.48523515052295 391.0105839178814Q303.3845914287356 391.6542351701802 308.85562707327546 391.6542351701802L308.85562707327546 391.6542351701802Q324.2154865031333 391.6542351701802 331.82227403030106 384.69109889531126Q339.3998046823643 377.72796262044244 339.3998046823643 362.98249756777886L339.3998046823643 362.98249756777886Q339.3998046823643 354.99537066425273 336.3278327963927 350.2557568973251Q333.2851177855256 345.5161431303976 326.23421088534326 342.67822624526195Q319.1833039851608 339.81105248502183 307.3635264429464 337.499759351767L307.3635264429464 337.499759351767Q292.2084651388199 334.3400168404819 282.2026138530839 330.0392562001217Q272.19676256734795 325.70923868465707 267.2523506746889 317.69285490602647Q262.3079387820299 309.70572800250034 262.3079387820299 296.0135104535984L262.3079387820299 296.0135104535984Q262.3079387820299 281.8824397781292 268.10080005271914 273.25166162230425Q273.8936613234084 264.6208834664793 284.5139069863387 260.612691577164Q295.16340952437355 256.6044996878487 309.2652233247383 256.6044996878487L309.2652233247383 256.6044996878487Q315.58470834730844 256.6044996878487 323.6888627512525 257.3651784405655Q331.82227403030106 258.0966003181778 339.7216303085137 259.0328203215215Q347.6209865867263 259.99829719996967 353.2968203569976 261.0515447037314L353.2968203569976 261.0515447037314L351.8339766017731 275.15335850409616Q345.7192897049344 274.3049091260659 337.7029059263038 273.5734872484536Q329.7157790227777 272.8420653708414 322.34304649644594 272.1984141185426Q314.97031397011415 271.58401974134824 310.5232689542314 271.58401974134824L310.5232689542314 271.58401974134824Q295.16340952437355 271.58401974134824 287.2640532461609 277.25985351161955Q279.36469696794825 282.93568728189086 279.36469696794825 294.96026294983676L279.36469696794825 294.96026294983676Q279.36469696794825 304.2346923579604 282.8462651053827 309.0620767502015Q286.2985763677127 313.918718017547 294.1101620206119 316.6396074022647Q301.8924907984065 319.38975366208695 314.5314608435467 322.34469804764046L314.5314608435467 322.34469804764046Q325.50278900773094 324.86078930662677 333.40214528594356 327.8157336921804Q341.30150156415624 330.77067807773403 346.45071158254666 335.0714387180942Q351.59992160093714 339.40145623355886 354.02824223460993 345.83796875654696Q356.4565628682827 352.2452244044306 356.4565628682827 361.7244519382857L356.4565628682827 361.7244519382857Q356.4565628682827 377.72796262044244 350.7807290980114 387.6460432808649Q345.0756384526356 397.534867066183 334.54316341501874 402.0696827073791Q324.0106883774019 406.60449834857525 309.7040764513057 406.60449834857525Z " fill="#ffffff" transform="matrix(0.8758678936325159,0,0,0.8758678936325159,0,9.558284454486412)"/><path d="M595.3662606847497 372.7084563373452L595.3662606847497 372.7084563373452Q590.5683929836275 372.7084563373452 584.1712360487982 372.15314757564124Q577.7740791139688 371.5756264634691 571.4435592305438 370.709344795211Q565.1352516975871 369.8208507764847 560.337383996465 369.176692612908L560.337383996465 369.176692612908L561.60348797315 358.62582614053315Q566.245869220995 359.11449785083266 572.3986903006746 359.7586560144092Q578.5737237308224 360.3806018275177 584.571058357225 360.8692735378171Q590.5683929836275 361.3579452481166 594.722102521173 361.3579452481166L594.722102521173 361.3579452481166Q606.3835865169558 361.3579452481166 612.1587976386768 356.071405836695Q617.9117964099296 350.78486642527355 617.9117964099296 339.5898417893221L617.9117964099296 339.5898417893221Q617.9117964099296 333.525870111515 615.5794996107732 329.92746933567355Q613.2694151620847 326.32906855983197 607.9162386992587 324.17447056442063Q602.5630622364326 321.9976602185412 593.589272647297 320.2428845315568L593.589272647297 320.2428845315568Q582.0832751047914 317.8439506809957 574.4866512446814 314.5787351621766Q566.8900273845716 311.2913072928892 563.136140155453 305.20512326461403Q559.3822529263342 299.14115158680704 559.3822529263342 288.7457715677092L559.3822529263342 288.7457715677092Q559.3822529263342 278.0172062915891 563.7802983190295 271.4645629034826Q568.1783437117247 264.9119195153761 576.241426931666 261.86882750123846Q584.3267225020752 258.8257354871009 595.0330754277272 258.8257354871009L595.0330754277272 258.8257354871009Q599.8309431288493 258.8257354871009 605.983764208529 259.403256599273Q612.1587976386768 259.95856536097693 618.1561322650793 260.66936057595797Q624.1534668914819 261.4023681414072 628.4626628823046 262.2020127582608L628.4626628823046 262.2020127582608L627.3520453588967 272.90836568391285Q622.7096641110517 272.2642075203363 616.6234800827765 271.70889875863236Q610.5595084049694 271.1535899969284 604.9619960869937 270.6649182866289Q599.3644837690181 270.19845892679757 595.9882064978581 270.19845892679757L595.9882064978581 270.19845892679757Q584.3267225020752 270.19845892679757 578.3293878756726 274.5076549176202Q572.3320532492701 278.8168509084428 572.3320532492701 287.9461269508556L572.3320532492701 287.9461269508556Q572.3320532492701 294.9874420492615 574.9753229549809 298.6524798765075Q577.5963803102235 302.3397300542217 583.5270778852216 304.40547864776033Q589.4355631097515 306.49343959176724 599.0312985119956 308.7368869890511L599.0312985119956 308.7368869890511Q607.3609299375547 310.64714912931265 613.3582645639574 312.8905965265966Q619.35559919036 315.13404392388054 623.2649728727556 318.39925944269964Q627.1743465551514 321.68668731198704 629.0179716440084 326.5734044149817Q630.8615967328656 331.4379091675082 630.8615967328656 338.6347107191913L630.8615967328656 338.6347107191913Q630.8615967328656 350.78486642527355 626.5524007420429 358.31485323397897Q622.2209924007523 365.8226276922163 614.2245462322155 369.26554201478075Q606.2281000636788 372.7084563373452 595.3662606847497 372.7084563373452ZM662.2032232434359 371.26465355691494L649.8975810840766 371.26465355691494L649.8975810840766 291.3001918715473L662.2032232434359 291.3001918715473L662.2032232434359 296.8977041895231Q666.0459598744272 294.65425679223915 672.5986032625337 292.18868589027363Q679.1512466506402 289.70090263784004 685.2374306789154 289.70090263784004L685.2374306789154 289.70090263784004Q693.2338768474522 289.70090263784004 698.1205939504468 291.6111647781016Q702.9850987029735 293.54363926883127 706.028190717111 297.85283525965383L706.028190717111 297.85283525965383Q709.2267691845257 296.0980595726694 713.8691504323707 294.1877974324078Q718.5115316802156 292.2553229416782 723.8647081430416 290.98921896499314Q729.2178846058675 289.70090263784004 734.3267252135439 289.70090263784004L734.3267252135439 289.70090263784004Q745.2107769429412 289.70090263784004 751.0526251160666 293.45478986695866Q756.894473289192 297.2086770960773 759.1157083360077 305.8492814281906Q761.3591557332917 314.489885760304 761.3591557332917 328.8834888636701L761.3591557332917 328.8834888636701L761.3591557332917 371.26465355691494L749.0535135739323 371.26465355691494L749.0535135739323 329.3721605739696Q749.0535135739323 318.97678055487177 747.8540466486519 312.73511007331945Q746.6545797233713 306.49343959176724 743.1228159989342 303.69468343277936Q739.6132646249654 300.8959272737915 732.4164630732822 300.8959272737915L732.4164630732822 300.8959272737915Q726.0193061384529 300.8959272737915 719.8664850587733 302.80618941405305Q713.7136639790936 304.7386639047827 710.3373867079335 306.6489260450443L710.3373867079335 306.6489260450443Q711.4702165818096 310.8026355825898 711.8700388902365 316.9776690127376Q712.2698611986633 323.1304900924173 712.2698611986633 329.6831334805238L712.2698611986633 329.6831334805238L712.2698611986633 371.26465355691494L699.9420066888358 371.26465355691494L699.9420066888358 329.994106387078Q699.9420066888358 319.1322670081489 698.8313891654279 312.801747124724Q697.72077164202 306.49343959176724 694.1223708661786 303.69468343277936Q690.523970090337 300.8959272737915 683.3271685386538 300.8959272737915L683.3271685386538 300.8959272737915Q677.2409845103787 300.8959272737915 671.3324992858487 302.80618941405305Q665.4018017108507 304.7386639047827 662.2032232434359 306.6489260450443L662.2032232434359 306.6489260450443L662.2032232434359 371.26465355691494ZM795.8993607112768 371.26465355691494L783.5937185519175 371.26465355691494L783.5937185519175 291.3001918715473L795.8993607112768 291.3001918715473L795.8993607112768 371.26465355691494ZM795.8993607112768 273.70801030076655L783.5937185519175 273.70801030076655L783.5937185519175 259.3144071974003L795.8993607112768 259.3144071974003L795.8993607112768 273.70801030076655ZM832.2165537267146 371.26465355691494L819.8886992168871 371.26465355691494L819.8886992168871 256.60450044028516L832.2165537267146 256.60450044028516L832.2165537267146 371.26465355691494ZM884.5044267287577 372.8639427906222L884.5044267287577 372.8639427906222Q872.5097574759526 372.8639427906222 865.5572917794192 368.2215615427773Q858.6048260828858 363.57918029493237 855.5617340687483 354.47211660298774Q852.5186420546107 345.3650529110431 852.5186420546107 331.7710944245306L852.5186420546107 331.7710944245306Q852.5186420546107 316.5778467043108 856.6723515921561 307.38193361049355Q860.8482734801697 298.1860205166762 868.3560479384071 293.9434615772582Q875.8638223966443 289.70090263784004 886.103715962465 289.70090263784004L886.103715962465 289.70090263784004Q902.0966082995385 289.70090263784004 910.2485409213524 298.5858428251031Q918.4226858936344 307.448570661898 918.4226858936344 327.12871317668566L918.4226858936344 327.12871317668566L917.7785277300578 336.56896212565266L865.1574694709924 336.56896212565266Q865.3129559242694 349.0300907382891 869.7998507188373 355.4272476731185Q874.264533162937 361.82440460794794 885.9482295091879 361.82440460794794L885.9482295091879 361.82440460794794Q890.4351243037557 361.82440460794794 895.7883007665818 361.5800687527982Q901.1414772294078 361.3579452481166 906.4280166408292 361.02475999109424Q911.6923437017825 360.71378708454006 915.3795938794968 360.3806018275177L915.3795938794968 360.3806018275177L915.690566786051 370.15403603350705Q911.8478301550597 370.7759818466154 906.3391672389566 371.420140010192Q900.8305043228535 372.0642981737685 895.0552932011325 372.4641204821954Q889.3022944298797 372.8639427906222 884.5044267287577 372.8639427906222ZM865.1574694709924 326.4845550131091L865.1574694709924 326.4845550131091L905.9393449305297 326.4845550131091Q905.9393449305297 311.7799790031887 901.2303266312805 305.9381308300633Q896.4990959815628 300.0962826569378 886.103715962465 300.0962826569378L886.103715962465 300.0962826569378Q876.0415212003896 300.0962826569378 870.5994953356909 306.18246668521294Q865.1574694709924 312.24643836302005 865.1574694709924 326.4845550131091ZM966.0681776478326 406.60450315175365L953.607049035196 406.60450315175365L964.0024290542939 371.26465355691494L952.0077598014888 371.26465355691494L929.4400117258406 291.3001918715473L941.9233526889451 291.3001918715473L961.4257963999877 360.5583006312629L966.8678222646862 360.5583006312629L986.5479647794739 291.3001918715473L999.0090933921103 291.3001918715473L966.0681776478326 406.60450315175365Z " fill="#7f8077" transform="matrix(0.8758678936325159,0,0,0.8758678936325159,0,9.558284454486412)"/></g></svg>